<svg width="92" height="107" viewBox="0 0 92 107" fill="none" xmlns="http://www.w3.org/2000/svg">
<path d="M31.4054 64.0944C35.4304 67.4197 40.5845 69.4163 46.2027 69.4163C59.0769 69.4163 69.5135 58.9325 69.5135 46C69.5135 33.0675 59.0769 22.5837 46.2027 22.5837C40.5845 22.5837 35.4304 24.5803 31.4054 27.9056" stroke="url(#paint0_linear)" stroke-width="8" stroke-linecap="round" stroke-linejoin="round"/>
<path d="M20.9477 13.3613C27.8857 8.02796 36.5725 4.85715 46 4.85715C68.7226 4.85715 87.1429 23.2774 87.1429 46C87.1429 68.7226 68.7226 87.1429 46 87.1429C36.5725 87.1429 27.8857 83.9721 20.9477 78.6387C11.1633 71.1174 4.85715 59.0904 4.85715 45.7953H37.2419H69.6266" stroke="url(#paint1_linear)" stroke-width="8" stroke-linecap="round" stroke-linejoin="round"/>
<path d="M18.027 10.7738L17.8243 11.181L17.2162 12.4027L17.0135 13.6244L17.2162 15.2534L18.4324 16.6787L20.2568 17.4932H21.8784L23.0946 17.086L24.3108 16.0679L27.5541 14.0317L31.6081 11.9955L35.0541 10.7738L39.3108 9.75566L43.5676 9.1448H48.027L52.8919 9.75566L58.1622 11.181L62.2162 12.81L65.8649 14.8462L68.9054 17.086L72.5541 20.3439L74.5811 22.7873L75.5946 24.0091L76.6081 25.4344L79.2432 29.7104L81.0676 34.3937L82.2838 39.6878L82.8919 44.9819V48.4434L82.6892 51.0905L81.6757 55.3665L80.2568 59.8462L78.027 64.3258L75.3919 68.3982L71.7432 72.4706L68.0946 75.5249L63.8378 78.3756L58.3649 80.819L52.4865 82.448L46.8108 82.8552L41.9459 82.6516L37.0811 82.0407L33.4324 80.819L28.3649 78.5792L24.3108 75.9321L21.8784 74.0995L18.2297 70.4344L15.3919 66.7692L13.3649 63.3077L11.7432 59.6425L10.527 55.9774L9.71622 53.1267L9.31081 49.8688H65.0541L64.6486 51.4977L64.0405 53.5339L62.8243 55.7738L61.4054 58.0136L59.3784 60.0498L56.9459 62.2896L53.9054 63.7149L50.8649 64.733L46.8108 65.3439L43.3649 65.1403L39.5135 64.1222L36.473 62.6968L34.6486 61.4751L33.4324 60.2534L31.6081 59.8462L29.7838 60.2534L28.3649 61.2715L27.5541 62.4932L27.1486 64.1222L27.5541 65.7511L28.1622 66.7692L31.6081 69.4163L35.4595 71.4525L41.3378 73.2851L45.3919 73.6923L49.4459 73.2851L53.7027 72.4706L58.3649 70.638L62.6216 67.991L65.2568 65.7511L67.8919 62.6968L69.9189 59.8462L71.7432 56.181L72.9595 52.5158L73.5676 48.6471V44.9819L73.1622 40.9095L72.5541 38.2624L71.1351 34.8009L69.1081 30.9321L66.6757 27.6742L64.4459 25.4344L61.2027 22.9909L57.1486 20.7511L53.5 19.5294L49.8514 18.7149L47.2162 18.5113H44.5811L42.3514 18.7149L38.5 19.5294L35.8649 20.5475L32.8243 21.9729L31 23.1946L29.1757 24.6199L28.1622 25.638L27.5541 26.6561L27.1486 27.8778L27.5541 29.3032L28.1622 30.5249L29.1757 31.3394L30.3919 31.9502H31.6081L33.027 31.7466L33.8378 31.1357L35.4595 29.7104L37.6892 28.4887L40.1216 27.6742L42.3514 27.0633L44.9865 26.6561H47.2162L50.2568 27.0633L52.8919 27.8778L55.7297 29.0995L58.3649 30.9321L60.3919 32.9683L62.2162 35.2081L63.6351 37.6516L64.4459 40.095L65.0541 41.724H44.7838H6.27027H4.64865L3.83784 41.9276L3.02703 42.3348L2.01351 42.9457L1.40541 43.9638L1 44.9819V46.2036L1.2027 50.276L2.01351 55.5701L3.02703 59.4389L5.05405 64.733L7.48649 69.4163L10.527 73.6923L13.1622 76.7466L16 79.5973L19.0405 82.0407L22.4865 84.4842L26.9459 86.724L30.5946 88.3529L34.4459 89.5747L38.5 90.3891L42.1486 90.7964L45.3919 91H48.4324L51.0676 90.5928L55.7297 89.9819L59.5811 88.9638L63.2297 87.7421L66.6757 85.9095L70.1216 83.8733L74.1757 81.2262L77.8243 77.7647L80.8649 74.5068L82.6892 72.0633L84.3108 69.6199L85.7297 67.1765L86.5405 65.5475L87.5541 63.3077L88.5676 60.6606L89.3784 58.0136L89.9865 55.5701L90.3919 53.5339L90.5946 51.905L91 48.6471V45.7964V43.1493L90.5946 40.095L90.1892 37.2443L89.5811 34.8009L88.7703 32.1538L88.1622 30.1176L86.7432 26.6561L85.527 24.4163L83.2973 20.7511L80.0541 16.6787L77.6216 13.8281L73.7703 10.5701L70.1216 7.92308L66.473 5.88688L62.2162 4.0543L57.9595 2.62896L54.7162 1.81448L51.8784 1.40724L48.4324 1H46L42.3514 1.20362L40.1216 1.40724L37.2838 1.81448L34.6486 2.42534L32.6216 3.0362L30.7973 3.64706L29.1757 4.25792L27.3514 5.0724L25.9324 5.68326L23.7027 6.90498L21.6757 8.1267L19.8514 9.34842L18.8378 10.1629L18.027 10.7738Z" stroke="#959595" stroke-opacity="0.2" stroke-width="0.3"/>
<path d="M8.71368 101.878V97.972C8.71368 96.8707 9.01235 96.0633 9.60968 95.55C10.207 95.0273 10.9863 94.766 11.9477 94.766C12.9277 94.766 13.7257 95.0087 14.3417 95.494C14.967 95.9793 15.2797 96.6233 15.2797 97.426C15.2797 97.7713 15.2097 98.0093 15.0697 98.14C14.9297 98.2613 14.6963 98.322 14.3697 98.322C13.7723 98.322 13.469 98.1307 13.4597 97.748C13.4503 97.6267 13.4363 97.524 13.4177 97.44C13.4083 97.3467 13.371 97.23 13.3057 97.09C13.2497 96.9407 13.175 96.8193 13.0817 96.726C12.9883 96.6233 12.8483 96.5393 12.6617 96.474C12.475 96.3993 12.2557 96.362 12.0037 96.362C11.0237 96.362 10.5337 96.8987 10.5337 97.972V101.878C10.5337 102.951 11.033 103.488 12.0317 103.488C12.3303 103.488 12.5777 103.441 12.7737 103.348C12.979 103.255 13.1237 103.124 13.2077 102.956C13.301 102.779 13.3617 102.625 13.3897 102.494C13.427 102.354 13.4503 102.186 13.4597 101.99C13.4877 101.607 13.7863 101.416 14.3557 101.416C14.6823 101.416 14.9157 101.481 15.0557 101.612C15.205 101.733 15.2797 101.967 15.2797 102.312C15.2797 103.152 14.967 103.824 14.3417 104.328C13.7257 104.832 12.923 105.084 11.9337 105.084C10.9723 105.084 10.193 104.827 9.59568 104.314C9.00768 103.791 8.71368 102.979 8.71368 101.878ZM19.8969 101.878V97.972C19.8969 96.8613 20.1909 96.0493 20.7789 95.536C21.3763 95.0227 22.1743 94.766 23.1729 94.766C24.1716 94.766 24.9696 95.0227 25.5669 95.536C26.1643 96.0493 26.4629 96.8613 26.4629 97.972V101.878C26.4629 102.989 26.1643 103.801 25.5669 104.314C24.9696 104.827 24.1716 105.084 23.1729 105.084C22.1743 105.084 21.3763 104.827 20.7789 104.314C20.1909 103.801 19.8969 102.989 19.8969 101.878ZM21.7169 101.878C21.7169 102.951 22.2023 103.488 23.1729 103.488C24.1529 103.488 24.6429 102.951 24.6429 101.878V97.972C24.6429 96.8987 24.1529 96.362 23.1729 96.362C22.2023 96.362 21.7169 96.8987 21.7169 97.972V101.878ZM31.5207 104.426V95.676C31.5207 95.368 31.6047 95.1393 31.7727 94.99C31.95 94.8407 32.1693 94.766 32.4307 94.766C32.776 94.766 33.042 94.8267 33.2287 94.948C33.4153 95.0693 33.6207 95.3307 33.8447 95.732L35.5667 98.868L37.2887 95.732C37.5127 95.3307 37.718 95.0693 37.9047 94.948C38.1007 94.8267 38.3713 94.766 38.7167 94.766C38.978 94.766 39.1927 94.8407 39.3607 94.99C39.538 95.1393 39.6267 95.368 39.6267 95.676V104.426C39.6267 104.603 39.5333 104.743 39.3467 104.846C39.1693 104.949 38.9593 105 38.7167 105C38.4647 105 38.25 104.949 38.0727 104.846C37.8953 104.743 37.8067 104.603 37.8067 104.426V98.406L36.1687 101.318C36.038 101.561 35.8327 101.682 35.5527 101.682C35.282 101.682 35.0813 101.561 34.9507 101.318L33.3407 98.294V104.426C33.3407 104.603 33.2473 104.743 33.0607 104.846C32.8833 104.949 32.6733 105 32.4307 105C32.1787 105 31.964 104.949 31.7867 104.846C31.6093 104.743 31.5207 104.603 31.5207 104.426ZM44.8097 104.426V95.34C44.8097 95.1627 44.8891 95.0227 45.0477 94.92C45.2064 94.8173 45.3931 94.766 45.6077 94.766H50.5917C50.7784 94.766 50.9184 94.8453 51.0117 95.004C51.1144 95.1627 51.1657 95.3447 51.1657 95.55C51.1657 95.774 51.1144 95.9653 51.0117 96.124C50.9091 96.2827 50.7691 96.362 50.5917 96.362H46.6297V99.162H48.7577C48.9351 99.162 49.0751 99.2367 49.1777 99.386C49.2804 99.526 49.3317 99.694 49.3317 99.89C49.3317 100.067 49.2804 100.231 49.1777 100.38C49.0844 100.52 48.9444 100.59 48.7577 100.59H46.6297V103.404H50.5917C50.7691 103.404 50.9091 103.483 51.0117 103.642C51.1144 103.801 51.1657 103.992 51.1657 104.216C51.1657 104.421 51.1144 104.603 51.0117 104.762C50.9184 104.921 50.7784 105 50.5917 105H45.6077C45.3931 105 45.2064 104.949 45.0477 104.846C44.8891 104.743 44.8097 104.603 44.8097 104.426ZM55.7336 104.426V95.326C55.7336 95.1393 55.8222 94.9993 55.9996 94.906C56.1769 94.8127 56.3916 94.766 56.6436 94.766C56.8956 94.766 57.1102 94.8127 57.2876 94.906C57.4649 94.9993 57.5536 95.1393 57.5536 95.326V103.404H60.9696C61.1376 103.404 61.2682 103.483 61.3616 103.642C61.4642 103.801 61.5156 103.987 61.5156 104.202C61.5156 104.417 61.4642 104.603 61.3616 104.762C61.2682 104.921 61.1376 105 60.9696 105H56.5316C56.3169 105 56.1302 104.949 55.9716 104.846C55.8129 104.743 55.7336 104.603 55.7336 104.426ZM65.5108 103.39C65.5108 103.175 65.5901 102.961 65.7488 102.746C65.9168 102.522 66.1035 102.41 66.3088 102.41C66.4301 102.41 66.5655 102.466 66.7148 102.578C66.8735 102.69 67.0228 102.816 67.1628 102.956C67.3121 103.087 67.5221 103.208 67.7928 103.32C68.0635 103.432 68.3621 103.488 68.6888 103.488C69.1368 103.488 69.5101 103.385 69.8088 103.18C70.1075 102.975 70.2568 102.671 70.2568 102.27C70.2568 101.99 70.1728 101.743 70.0048 101.528C69.8461 101.304 69.6315 101.122 69.3608 100.982C69.0995 100.833 68.8101 100.693 68.4928 100.562C68.1755 100.422 67.8535 100.268 67.5268 100.1C67.2095 99.932 66.9155 99.7453 66.6448 99.54C66.3835 99.3253 66.1688 99.0453 66.0008 98.7C65.8421 98.3453 65.7628 97.944 65.7628 97.496C65.7628 97.0013 65.8608 96.5673 66.0568 96.194C66.2621 95.8113 66.5328 95.5173 66.8688 95.312C67.2048 95.0973 67.5641 94.9433 67.9468 94.85C68.3295 94.7473 68.7355 94.696 69.1648 94.696C69.4075 94.696 69.6641 94.7147 69.9348 94.752C70.2055 94.78 70.4901 94.8313 70.7888 94.906C71.0968 94.9807 71.3441 95.0973 71.5308 95.256C71.7268 95.4147 71.8248 95.6013 71.8248 95.816C71.8248 96.0213 71.7595 96.236 71.6288 96.46C71.4981 96.6747 71.3208 96.782 71.0968 96.782C71.0128 96.782 70.7841 96.6933 70.4108 96.516C70.0375 96.3387 69.6221 96.25 69.1648 96.25C68.6608 96.25 68.2688 96.348 67.9888 96.544C67.7181 96.7307 67.5828 96.992 67.5828 97.328C67.5828 97.5987 67.6948 97.8367 67.9188 98.042C68.1428 98.238 68.4181 98.4013 68.7448 98.532C69.0808 98.6533 69.4401 98.812 69.8228 99.008C70.2148 99.1947 70.5741 99.4 70.9008 99.624C71.2368 99.848 71.5168 100.175 71.7408 100.604C71.9648 101.024 72.0768 101.519 72.0768 102.088C72.0768 103.059 71.7688 103.81 71.1528 104.342C70.5461 104.865 69.7435 105.126 68.7448 105.126C67.8581 105.126 67.0975 104.944 66.4628 104.58C65.8281 104.216 65.5108 103.819 65.5108 103.39ZM76.1153 95.522C76.1153 95.3167 76.2459 95.1393 76.5073 94.99C76.7779 94.8407 77.0486 94.766 77.3193 94.766C77.5713 94.766 77.7579 94.8873 77.8793 95.13L80.0073 99.176L82.1493 95.13C82.2799 94.8873 82.4619 94.766 82.6953 94.766C82.9659 94.766 83.2319 94.8407 83.4933 94.99C83.7639 95.1393 83.8993 95.3167 83.8993 95.522C83.8993 95.5967 83.8853 95.6573 83.8573 95.704L80.9733 100.716C80.9359 100.772 80.9173 100.833 80.9173 100.898V104.426C80.9173 104.603 80.8286 104.743 80.6513 104.846C80.4739 104.949 80.2593 105 80.0073 105C79.7646 105 79.5499 104.949 79.3633 104.846C79.1859 104.743 79.0973 104.603 79.0973 104.426V100.898C79.0973 100.814 79.0833 100.753 79.0553 100.716L76.1573 95.704C76.1293 95.6293 76.1153 95.5687 76.1153 95.522Z" fill="black" fill-opacity="0.8"/>
<defs>
<linearGradient id="paint0_linear" x1="31.4054" y1="45.7964" x2="71.5405" y2="45.7964" gradientUnits="userSpaceOnUse">
<stop stop-color="#FFBB00" stop-opacity="0.5"/>
<stop offset="1" stop-color="#FFBB00"/>
</linearGradient>
<linearGradient id="paint1_linear" x1="4.85715" y1="45.7953" x2="89.587" y2="45.7953" gradientUnits="userSpaceOnUse">
<stop stop-color="#FFBB00" stop-opacity="0.5"/>
<stop offset="1" stop-color="#FFBB00"/>
</linearGradient>
</defs>
</svg>
