<svg width="165" height="165" viewBox="0 0 165 165" fill="none" xmlns="http://www.w3.org/2000/svg">
<rect width="165" height="165" fill="white"/>
<path d="M60.2973 102.147C66.5585 107.32 74.5758 110.425 83.3153 110.425C103.342 110.425 119.577 94.1171 119.577 74C119.577 53.8828 103.342 37.5746 83.3153 37.5746C74.5758 37.5746 66.5585 40.6804 60.2973 45.8531" stroke="url(#paint0_linear)" stroke-width="12.5" stroke-linecap="round" stroke-linejoin="round"/>
<path d="M44.2162 23.4943C54.957 15.2414 68.4052 10.3348 83 10.3348C118.177 10.3348 146.694 38.8387 146.694 74C146.694 109.161 118.177 137.665 83 137.665C68.4052 137.665 54.957 132.759 44.2162 124.506C29.0689 112.867 19.3063 94.2563 19.3063 73.6833H69.4414H119.577" stroke="url(#paint1_linear)" stroke-width="12.5" stroke-linecap="round" stroke-linejoin="round"/>
<g filter="url(#filter0_d)">
<path d="M39.4865 19.2036L39.1712 19.8371L38.2252 21.7376L37.9099 23.638L38.2252 26.1719L40.1171 28.3891L42.955 29.6561H45.4775L47.3694 29.0226L49.2613 27.4389L54.3063 24.2715L60.6126 21.1041L65.973 19.2036L72.5946 17.6199L79.2162 16.6697H86.1532L93.7207 17.6199L101.919 19.8371L108.225 22.371L113.901 25.5385L118.631 29.0226L124.306 34.0905L127.459 37.8914L129.036 39.7919L130.613 42.0091L134.712 48.6606L137.55 55.9457L139.441 64.181L140.387 72.4163V77.8009L140.072 81.9186L138.495 88.5701L136.288 95.5385L132.82 102.507L128.721 108.842L123.045 115.176L117.369 119.928L110.748 124.362L102.234 128.163L93.0901 130.697L84.2613 131.33L76.6937 131.014L69.1261 130.063L63.4504 128.163L55.5676 124.679L49.2613 120.561L45.4775 117.71L39.8018 112.009L35.3874 106.308L32.2342 100.923L29.7117 95.2217L27.8198 89.5204L26.5586 85.086L25.9279 80.0181H112.64L112.009 82.552L111.063 85.7195L109.171 89.2036L106.964 92.6878L103.811 95.8552L100.027 99.3394L95.2973 101.557L90.5676 103.14L84.2613 104.09L78.9009 103.774L72.9099 102.19L68.1802 99.9729L65.3423 98.0724L63.4504 96.172L60.6126 95.5385L57.7748 96.172L55.5676 97.7557L54.3063 99.6561L53.6757 102.19L54.3063 104.724L55.2523 106.308L60.6126 110.425L66.6036 113.593L75.7477 116.443L82.0541 117.077L88.3604 116.443L94.982 115.176L102.234 112.326L108.856 108.208L112.955 104.724L117.054 99.9729L120.207 95.5385L123.045 89.8371L124.937 84.1357L125.883 78.1177V72.4163L125.252 66.0815L124.306 61.9638L122.099 56.5792L118.946 50.5611L115.162 45.4932L111.694 42.0091L106.649 38.2081L100.342 34.724L94.6667 32.8235L88.991 31.5566L84.8919 31.2398H80.7928L77.3243 31.5566L71.3333 32.8235L67.2342 34.4072L62.5045 36.6244L59.6667 38.5249L56.8288 40.7421L55.2523 42.3258L54.3063 43.9095L53.6757 45.81L54.3063 48.0271L55.2523 49.9276L56.8288 51.1946L58.7207 52.1448H60.6126L62.8198 51.8281L64.0811 50.8778L66.6036 48.6606L70.0721 46.7602L73.8559 45.4932L77.3243 44.543L81.4234 43.9095H84.8919L89.6216 44.543L93.7207 45.81L98.1351 47.7104L102.234 50.5611L105.387 53.7285L108.225 57.2127L110.432 61.0136L111.694 64.8145L112.64 67.3484H81.1081H21.1982H18.6757L17.4144 67.6652L16.1532 68.2986L14.5766 69.2489L13.6306 70.8326L13 72.4163V74.3167L13.3153 80.6516L14.5766 88.8869L16.1532 94.905L19.3063 103.14L23.0901 110.425L27.8198 117.077L31.9189 121.828L36.3333 126.262L41.0631 130.063L46.4234 133.864L53.3604 137.348L59.036 139.882L65.027 141.783L71.3333 143.05L77.009 143.683L82.0541 144H86.7838L90.8829 143.367L98.1351 142.416L104.126 140.833L109.802 138.932L115.162 136.081L120.523 132.914L126.829 128.796L132.505 123.412L137.234 118.344L140.072 114.543L142.595 110.742L144.802 106.941L146.063 104.407L147.64 100.923L149.216 96.8054L150.477 92.6878L151.423 88.8869L152.054 85.7195L152.369 83.1855L153 78.1177V73.6833V69.5656L152.369 64.8145L151.739 60.3801L150.793 56.5792L149.532 52.4615L148.586 49.2941L146.378 43.9095L144.486 40.4253L141.018 34.724L135.973 28.3891L132.189 23.9548L126.198 18.8869L120.523 14.7692L114.847 11.6018L108.225 8.75113L101.604 6.53394L96.5586 5.26697L92.1441 4.63348L86.7838 4H83L77.3243 4.31674L73.8559 4.63348L69.4414 5.26697L65.3423 6.21719L62.1892 7.16742L59.3513 8.11765L56.8288 9.06787L53.991 10.3348L51.7838 11.2851L48.3153 13.1855L45.1622 15.086L42.3243 16.9864L40.7477 18.2534L39.4865 19.2036Z" stroke="#959595" stroke-opacity="0.2" stroke-width="0.3"/>
</g>
<path d="M29.7338 157.54V151.96C29.7338 150.387 30.1605 149.233 31.0138 148.5C31.8672 147.753 32.9805 147.38 34.3538 147.38C35.7538 147.38 36.8938 147.727 37.7738 148.42C38.6672 149.113 39.1138 150.033 39.1138 151.18C39.1138 151.673 39.0138 152.013 38.8138 152.2C38.6138 152.373 38.2805 152.46 37.8138 152.46C36.9605 152.46 36.5272 152.187 36.5138 151.64C36.5005 151.467 36.4805 151.32 36.4538 151.2C36.4405 151.067 36.3872 150.9 36.2938 150.7C36.2138 150.487 36.1072 150.313 35.9738 150.18C35.8405 150.033 35.6405 149.913 35.3738 149.82C35.1072 149.713 34.7938 149.66 34.4338 149.66C33.0338 149.66 32.3338 150.427 32.3338 151.96V157.54C32.3338 159.073 33.0472 159.84 34.4738 159.84C34.9005 159.84 35.2538 159.773 35.5338 159.64C35.8272 159.507 36.0338 159.32 36.1538 159.08C36.2872 158.827 36.3738 158.607 36.4138 158.42C36.4672 158.22 36.5005 157.98 36.5138 157.7C36.5538 157.153 36.9805 156.88 37.7938 156.88C38.2605 156.88 38.5938 156.973 38.7938 157.16C39.0072 157.333 39.1138 157.667 39.1138 158.16C39.1138 159.36 38.6672 160.32 37.7738 161.04C36.8938 161.76 35.7472 162.12 34.3338 162.12C32.9605 162.12 31.8472 161.753 30.9938 161.02C30.1538 160.273 29.7338 159.113 29.7338 157.54ZM45.7099 157.54V151.96C45.7099 150.373 46.1299 149.213 46.9699 148.48C47.8233 147.747 48.9633 147.38 50.3899 147.38C51.8166 147.38 52.9566 147.747 53.8099 148.48C54.6633 149.213 55.0899 150.373 55.0899 151.96V157.54C55.0899 159.127 54.6633 160.287 53.8099 161.02C52.9566 161.753 51.8166 162.12 50.3899 162.12C48.9633 162.12 47.8233 161.753 46.9699 161.02C46.1299 160.287 45.7099 159.127 45.7099 157.54ZM48.3099 157.54C48.3099 159.073 49.0033 159.84 50.3899 159.84C51.7899 159.84 52.4899 159.073 52.4899 157.54V151.96C52.4899 150.427 51.7899 149.66 50.3899 149.66C49.0033 149.66 48.3099 150.427 48.3099 151.96V157.54ZM62.3152 161.18V148.68C62.3152 148.24 62.4352 147.913 62.6752 147.7C62.9286 147.487 63.2419 147.38 63.6152 147.38C64.1086 147.38 64.4886 147.467 64.7552 147.64C65.0219 147.813 65.3152 148.187 65.6352 148.76L68.0952 153.24L70.5552 148.76C70.8752 148.187 71.1686 147.813 71.4352 147.64C71.7152 147.467 72.1019 147.38 72.5952 147.38C72.9686 147.38 73.2752 147.487 73.5152 147.7C73.7686 147.913 73.8952 148.24 73.8952 148.68V161.18C73.8952 161.433 73.7619 161.633 73.4952 161.78C73.2419 161.927 72.9419 162 72.5952 162C72.2352 162 71.9286 161.927 71.6752 161.78C71.4219 161.633 71.2952 161.433 71.2952 161.18V152.58L68.9552 156.74C68.7686 157.087 68.4752 157.26 68.0752 157.26C67.6886 157.26 67.4019 157.087 67.2152 156.74L64.9152 152.42V161.18C64.9152 161.433 64.7819 161.633 64.5152 161.78C64.2619 161.927 63.9619 162 63.6152 162C63.2552 162 62.9486 161.927 62.6952 161.78C62.4419 161.633 62.3152 161.433 62.3152 161.18ZM81.2996 161.18V148.2C81.2996 147.947 81.4129 147.747 81.6396 147.6C81.8663 147.453 82.1329 147.38 82.4396 147.38H89.5596C89.8263 147.38 90.0263 147.493 90.1596 147.72C90.3063 147.947 90.3796 148.207 90.3796 148.5C90.3796 148.82 90.3063 149.093 90.1596 149.32C90.0129 149.547 89.8129 149.66 89.5596 149.66H83.8996V153.66H86.9396C87.1929 153.66 87.3929 153.767 87.5396 153.98C87.6863 154.18 87.7596 154.42 87.7596 154.7C87.7596 154.953 87.6863 155.187 87.5396 155.4C87.4063 155.6 87.2063 155.7 86.9396 155.7H83.8996V159.72H89.5596C89.8129 159.72 90.0129 159.833 90.1596 160.06C90.3063 160.287 90.3796 160.56 90.3796 160.88C90.3796 161.173 90.3063 161.433 90.1596 161.66C90.0263 161.887 89.8263 162 89.5596 162H82.4396C82.1329 162 81.8663 161.927 81.6396 161.78C81.4129 161.633 81.2996 161.433 81.2996 161.18ZM96.9051 161.18V148.18C96.9051 147.913 97.0317 147.713 97.2851 147.58C97.5384 147.447 97.8451 147.38 98.2051 147.38C98.5651 147.38 98.8717 147.447 99.1251 147.58C99.3784 147.713 99.5051 147.913 99.5051 148.18V159.72H104.385C104.625 159.72 104.812 159.833 104.945 160.06C105.092 160.287 105.165 160.553 105.165 160.86C105.165 161.167 105.092 161.433 104.945 161.66C104.812 161.887 104.625 162 104.385 162H98.0451C97.7384 162 97.4717 161.927 97.2451 161.78C97.0184 161.633 96.9051 161.433 96.9051 161.18ZM110.873 159.7C110.873 159.393 110.986 159.087 111.213 158.78C111.453 158.46 111.719 158.3 112.013 158.3C112.186 158.3 112.379 158.38 112.593 158.54C112.819 158.7 113.033 158.88 113.233 159.08C113.446 159.267 113.746 159.44 114.133 159.6C114.519 159.76 114.946 159.84 115.413 159.84C116.053 159.84 116.586 159.693 117.013 159.4C117.439 159.107 117.653 158.673 117.653 158.1C117.653 157.7 117.533 157.347 117.293 157.04C117.066 156.72 116.759 156.46 116.373 156.26C115.999 156.047 115.586 155.847 115.133 155.66C114.679 155.46 114.219 155.24 113.753 155C113.299 154.76 112.879 154.493 112.493 154.2C112.119 153.893 111.813 153.493 111.573 153C111.346 152.493 111.233 151.92 111.233 151.28C111.233 150.573 111.373 149.953 111.653 149.42C111.946 148.873 112.333 148.453 112.813 148.16C113.293 147.853 113.806 147.633 114.353 147.5C114.899 147.353 115.479 147.28 116.093 147.28C116.439 147.28 116.806 147.307 117.193 147.36C117.579 147.4 117.986 147.473 118.413 147.58C118.853 147.687 119.206 147.853 119.473 148.08C119.753 148.307 119.893 148.573 119.893 148.88C119.893 149.173 119.799 149.48 119.613 149.8C119.426 150.107 119.173 150.26 118.853 150.26C118.733 150.26 118.406 150.133 117.873 149.88C117.339 149.627 116.746 149.5 116.093 149.5C115.373 149.5 114.813 149.64 114.413 149.92C114.026 150.187 113.833 150.56 113.833 151.04C113.833 151.427 113.993 151.767 114.313 152.06C114.633 152.34 115.026 152.573 115.493 152.76C115.973 152.933 116.486 153.16 117.033 153.44C117.593 153.707 118.106 154 118.573 154.32C119.053 154.64 119.453 155.107 119.773 155.72C120.093 156.32 120.253 157.027 120.253 157.84C120.253 159.227 119.813 160.3 118.933 161.06C118.066 161.807 116.919 162.18 115.493 162.18C114.226 162.18 113.139 161.92 112.233 161.4C111.326 160.88 110.873 160.313 110.873 159.7ZM126.022 148.46C126.022 148.167 126.208 147.913 126.582 147.7C126.968 147.487 127.355 147.38 127.742 147.38C128.102 147.38 128.368 147.553 128.542 147.9L131.582 153.68L134.642 147.9C134.828 147.553 135.088 147.38 135.422 147.38C135.808 147.38 136.188 147.487 136.562 147.7C136.948 147.913 137.142 148.167 137.142 148.46C137.142 148.567 137.122 148.653 137.082 148.72L132.962 155.88C132.908 155.96 132.882 156.047 132.882 156.14V161.18C132.882 161.433 132.755 161.633 132.502 161.78C132.248 161.927 131.942 162 131.582 162C131.235 162 130.928 161.927 130.662 161.78C130.408 161.633 130.282 161.433 130.282 161.18V156.14C130.282 156.02 130.262 155.933 130.222 155.88L126.082 148.72C126.042 148.613 126.022 148.527 126.022 148.46Z" fill="black" fill-opacity="0.8"/>
<defs>
<filter id="filter0_d" x="8.84981" y="3.84976" width="148.3" height="148.3" filterUnits="userSpaceOnUse" color-interpolation-filters="sRGB">
<feFlood flood-opacity="0" result="BackgroundImageFix"/>
<feColorMatrix in="SourceAlpha" type="matrix" values="0 0 0 0 0 0 0 0 0 0 0 0 0 0 0 0 0 0 127 0"/>
<feOffset dy="4"/>
<feGaussianBlur stdDeviation="2"/>
<feColorMatrix type="matrix" values="0 0 0 0 0 0 0 0 0 0 0 0 0 0 0 0 0 0 0.25 0"/>
<feBlend mode="normal" in2="BackgroundImageFix" result="effect1_dropShadow"/>
<feBlend mode="normal" in="SourceGraphic" in2="effect1_dropShadow" result="shape"/>
</filter>
<linearGradient id="paint0_linear" x1="60.2973" y1="73.6832" x2="122.73" y2="73.6832" gradientUnits="userSpaceOnUse">
<stop stop-color="#FFBB00" stop-opacity="0.5"/>
<stop offset="1" stop-color="#FFBB00"/>
</linearGradient>
<linearGradient id="paint1_linear" x1="19.3063" y1="73.6833" x2="150.477" y2="73.6833" gradientUnits="userSpaceOnUse">
<stop stop-color="#FFBB00" stop-opacity="0.5"/>
<stop offset="1" stop-color="#FFBB00"/>
</linearGradient>
</defs>
</svg>
